<svg xmlns="http://www.w3.org/2000/svg" xmlns:xlink="http://www.w3.org/1999/xlink" viewBox="0,0,256,256" width="48px" height="48px"><defs><linearGradient x1="18.405" y1="10.91" x2="33.814" y2="43.484" gradientUnits="userSpaceOnUse" id="color-1"><stop offset="0" stop-color="#194c33"></stop><stop offset="1" stop-color="#bbbbbb"></stop></linearGradient></defs><g fill="none" fill-rule="nonzero" stroke="none" stroke-width="1" stroke-linecap="butt" stroke-linejoin="miter" stroke-miterlimit="10" stroke-dasharray="" stroke-dashoffset="0" font-family="none" font-weight="none" font-size="none" text-anchor="none" style="mix-blend-mode: normal"><g transform="scale(5.33333,5.33333)"><path d="M39,10l-2.835,31.181c-0.093,1.03 -0.957,1.819 -1.991,1.819h-20.348c-1.034,0 -1.898,-0.789 -1.992,-1.819l-2.834,-31.181z" fill="url(#color-1)"></path><path d="M32,7c0,-1.105 -0.895,-2 -2,-2h-12c-1.105,0 -2,0.895 -2,2c0,0 0,0.634 0,1h16c0,-0.366 0,-1 0,-1z" fill="#194c33"></path><path d="M7,9.886v0c0,-0.523 0.358,-0.974 0.868,-1.086c2.305,-0.507 8.895,-1.8 16.132,-1.8c7.237,0 13.827,1.293 16.132,1.8c0.51,0.112 0.868,0.563 0.868,1.086v0c0,0.615 -0.499,1.114 -1.114,1.114h-31.772c-0.615,0 -1.114,-0.499 -1.114,-1.114z" fill="#194c33"></path></g></g></svg>