<svg xmlns="http://www.w3.org/2000/svg" xmlns:xlink="http://www.w3.org/1999/xlink" viewBox="0,0,256,256" width="64px" height="64px"><defs><linearGradient x1="46.807" y1="9.849" x2="46.807" y2="24.215" gradientUnits="userSpaceOnUse" id="color-1"><stop offset="0" stop-color="#194c33"></stop><stop offset="1" stop-color="#bbbbbb"></stop></linearGradient><linearGradient x1="32" y1="8.084" x2="32" y2="55.83" gradientUnits="userSpaceOnUse" id="color-2"><stop offset="0" stop-color="#bbbbbb"></stop><stop offset="1" stop-color="#194c33"></stop></linearGradient></defs><g fill="none" fill-rule="nonzero" stroke="none" stroke-width="1" stroke-linecap="butt" stroke-linejoin="miter" stroke-miterlimit="10" stroke-dasharray="" stroke-dashoffset="0" font-family="none" font-weight="none" font-size="none" text-anchor="none" style="mix-blend-mode: normal"><g transform="scale(4,4)"><path d="M49.482,24.392l-9.874,-9.874l4.232,-4.232c0.39,-0.39 1.021,-0.39 1.411,0l8.464,8.464c0.39,0.39 0.39,1.021 0,1.411z" fill="url(#color-1)"></path><path d="M50.697,25.999l4.428,-4.428c1.167,-1.167 1.167,-3.065 0,-4.232l-8.464,-8.464c-1.167,-1.167 -3.065,-1.167 -4.232,0l-4.428,4.428c-0.664,-0.175 -1.4,-0.011 -1.92,0.509l-1.411,1.411c-0.52,0.52 -0.684,1.256 -0.509,1.92l-22.963,22.963l-0.508,0.508l-0.2,0.2l-2.373,9.967c-0.343,1.442 0.078,2.928 1.126,3.976c1.048,1.048 2.534,1.469 3.976,1.125l9.967,-2.373l0.2,-0.2l0.508,-0.508l22.964,-22.964c0.664,0.175 1.4,0.011 1.92,-0.509l1.411,-1.411c0.519,-0.518 0.683,-1.254 0.508,-1.918zM47.367,27.92l-11.286,-11.286l1.411,-1.411l11.285,11.285zM23.46,50.414c-0.28,-1.063 -0.682,-2.077 -1.198,-3.034l20.872,-20.872l2.116,2.116zM14.916,53.428c-0.12,-1.074 -0.58,-2.115 -1.405,-2.939c-0.825,-0.825 -1.865,-1.285 -2.939,-1.405l0.698,-2.931c1.649,0.266 3.173,1.036 4.357,2.22c1.184,1.184 1.954,2.709 2.22,4.357zM17.038,46.962c-1.447,-1.447 -3.301,-2.396 -5.306,-2.75l0.463,-1.943c2.382,0.441 4.533,1.562 6.254,3.282c1.721,1.72 2.841,3.872 3.282,6.254l-1.943,0.463c-0.355,-2.005 -1.303,-3.859 -2.75,-5.306zM19.859,44.141c-0.477,-0.477 -0.987,-0.907 -1.517,-1.304l20.561,-20.561l2.821,2.821l-20.561,20.561c-0.397,-0.53 -0.827,-1.04 -1.304,-1.517zM16.62,41.738c-0.957,-0.516 -1.971,-0.918 -3.034,-1.198l21.79,-21.79l2.116,2.116zM43.84,10.286c0.389,-0.389 1.022,-0.389 1.411,0l8.464,8.464c0.389,0.389 0.389,1.022 0,1.411l-4.232,4.232l-9.874,-9.874z" fill="url(#color-2)"></path></g></g></svg>